<?xml version="1.0" encoding="UTF-8"?>
<svg width="20px" height="20px" viewBox="0 0 20 20" version="1.1" xmlns="http://www.w3.org/2000/svg" xmlns:xlink="http://www.w3.org/1999/xlink">
    <!-- Generator: Sketch 44.1 (41455) - http://www.bohemiancoding.com/sketch -->
    <title>Icon_Twitter</title>
    <desc>Created with Sketch.</desc>
    <defs></defs>
    <g id="Page-1" stroke="none" stroke-width="1" fill="none" fill-rule="evenodd">
        <g id="Podcast-Intro" transform="translate(-1164.000000, -979.000000)" fill="#FFFFFF">
            <path d="M1170.28984,998.505088 C1177.83728,998.505088 1181.96472,991.001632 1181.96472,984.495232 C1181.96472,984.282016 1181.96112,984.069856 1181.95296,983.858656 C1182.75408,983.163712 1183.45056,982.296544 1184,981.309184 C1183.26472,981.701152 1182.47352,981.965248 1181.64352,982.084384 C1182.49064,981.47488 1183.14112,980.510272 1183.44784,979.360576 C1182.65488,979.924576 1181.77704,980.33488 1180.8424,980.555776 C1180.0936,979.598656 1179.02728,979 1177.8472,979 C1175.58104,979 1173.74328,981.205312 1173.74328,983.923648 C1173.74328,984.310144 1173.77936,984.685792 1173.84976,985.046368 C1170.4396,984.84064 1167.41552,982.881184 1165.392,979.901824 C1165.03928,980.629312 1164.83624,981.47488 1164.83624,982.376704 C1164.83624,984.085024 1165.56072,985.593088 1166.66224,986.475328 C1165.9892,986.450464 1165.3568,986.228512 1164.80376,985.859392 C1164.80288,985.879936 1164.80288,985.90048 1164.80288,985.92208 C1164.80288,988.307104 1166.21752,990.297952 1168.09488,990.74944 C1167.75024,990.861952 1167.3876,990.922624 1167.0132,990.922624 C1166.74888,990.922624 1166.49176,990.891232 1166.24184,990.833824 C1166.76416,992.790112 1168.27896,994.213696 1170.07512,994.253824 C1168.67048,995.574496 1166.90136,996.3616 1164.9788,996.3616 C1164.64776,996.3616 1164.32112,996.338848 1164,996.293344 C1165.816,997.689952 1167.97216,998.505088 1170.28984,998.505088" id="Icon_Twitter"></path>
        </g>
    </g>
</svg>