<?xml version="1.0" encoding="UTF-8"?>
<svg width="20px" height="20px" viewBox="0 0 20 20" version="1.1" xmlns="http://www.w3.org/2000/svg" xmlns:xlink="http://www.w3.org/1999/xlink">
    <!-- Generator: Sketch 44.1 (41455) - http://www.bohemiancoding.com/sketch -->
    <title>Icon_Fb</title>
    <desc>Created with Sketch.</desc>
    <defs></defs>
    <g id="Page-1" stroke="none" stroke-width="1" fill="none" fill-rule="evenodd">
        <g id="Podcast-Intro" transform="translate(-1117.000000, -979.000000)" fill="#FEFEFE">
            <path d="M1135.89619,979 L1118.10381,979 C1117.49413,979 1117,979.494129 1117,980.103809 L1117,997.896191 C1117,998.505796 1117.49413,999.000075 1118.10381,999.000075 L1127.68267,999.000075 L1127.68267,991.254978 L1125.07624,991.254978 L1125.07624,988.236551 L1127.68267,988.236551 L1127.68267,986.010573 C1127.68267,983.427376 1129.26037,982.02075 1131.56481,982.02075 C1132.66869,982.02075 1133.61738,982.10288 1133.89382,982.139598 L1133.89382,984.839247 L1132.29559,984.839996 C1131.04235,984.839996 1130.79964,985.435514 1130.79964,986.309419 L1130.79964,988.236551 L1133.78861,988.236551 L1133.39947,991.254978 L1130.79964,991.254978 L1130.79964,999.000075 L1135.89619,999.000075 C1136.5058,999.000075 1137,998.505796 1137,997.896191 L1137,980.103809 C1137,979.494129 1136.5058,979 1135.89619,979" id="Icon_Fb"></path>
        </g>
    </g>
</svg>