<?xml version="1.0" encoding="UTF-8"?>
<svg width="20px" height="19px" viewBox="0 0 20 19" version="1.1" xmlns="http://www.w3.org/2000/svg" xmlns:xlink="http://www.w3.org/1999/xlink">
    <!-- Generator: Sketch 44.1 (41455) - http://www.bohemiancoding.com/sketch -->
    <title>Icon_Snapchat</title>
    <desc>Created with Sketch.</desc>
    <defs></defs>
    <g id="Page-1" stroke="none" stroke-width="1" fill="none" fill-rule="evenodd">
        <g id="Podcast-Intro" transform="translate(-1212.000000, -979.000000)" fill="#FEFEFE">
            <path d="M1222.12621,997.772468 C1222.07464,997.772468 1222.02404,997.770993 1221.97338,997.76861 L1221.97326,997.76861 C1221.94098,997.771106 1221.90723,997.772468 1221.87347,997.772468 C1220.68863,997.772468 1219.92814,997.234935 1219.19278,996.714989 C1218.68498,996.35616 1218.20582,996.017472 1217.64123,995.923411 C1217.36574,995.877855 1217.0915,995.854652 1216.82656,995.854652 C1216.34916,995.854652 1215.97252,995.928347 1215.69754,995.982128 C1215.53047,996.014862 1215.38631,996.042945 1215.27676,996.042945 C1215.16234,996.042945 1215.03832,996.01821 1214.98443,995.834002 C1214.93757,995.674472 1214.9037,995.519935 1214.87113,995.370504 C1214.78711,994.985749 1214.72749,994.749178 1214.56626,994.724443 C1212.68708,994.434147 1212.1492,994.03833 1212.02927,993.757508 C1212.01231,993.717341 1212.00266,993.677119 1212.00034,993.637293 C1211.99427,993.529446 1212.07069,993.434137 1212.17728,993.41672 C1215.06606,992.941025 1216.36153,989.988536 1216.41531,989.863159 C1216.41679,989.859698 1216.41832,989.856294 1216.41991,989.852834 C1216.59674,989.494573 1216.63135,989.183513 1216.52316,988.928617 C1216.32494,988.461375 1215.67837,988.256063 1215.25038,988.120304 C1215.14566,988.087173 1215.04638,988.0558 1214.96809,988.024881 C1214.11405,987.687271 1214.04296,987.340697 1214.07655,987.164091 C1214.13373,986.863129 1214.53596,986.653392 1214.86126,986.653392 C1214.95044,986.653392 1215.02896,986.669163 1215.095,986.700025 C1215.47918,986.879978 1215.82542,986.971203 1216.12422,986.971203 C1216.537,986.971203 1216.71718,986.797717 1216.73919,986.774968 C1216.7287,986.579471 1216.71571,986.375236 1216.70243,986.164535 C1216.61637,984.798776 1216.50977,983.10176 1216.94184,982.133066 C1218.23686,979.229366 1220.98307,979.003801 1221.79393,979.003801 C1221.8147,979.003801 1222.14941,979.000227 1222.14941,979.000227 L1222.19741,979 C1223.01009,979 1225.76232,979.226019 1227.05807,982.13125 C1227.49025,983.100512 1227.38337,984.799002 1227.29719,986.163741 L1227.29362,986.223025 C1227.28165,986.413076 1227.27013,986.597795 1227.26049,986.774628 C1227.28114,986.795732 1227.44685,986.955261 1227.82111,986.969615 L1227.82151,986.969615 C1228.1059,986.958722 1228.43279,986.868065 1228.79145,986.700025 C1228.89663,986.650953 1229.01338,986.640571 1229.09287,986.640571 C1229.21421,986.640571 1229.33732,986.664058 1229.4395,986.70672 L1229.44568,986.709216 C1229.73586,986.812071 1229.92591,987.015454 1229.93,987.227914 C1229.93374,987.428007 1229.78102,987.728855 1229.03165,988.024881 C1228.95399,988.055403 1228.85471,988.086946 1228.74953,988.120304 C1228.32114,988.256233 1227.67474,988.461375 1227.47664,988.928504 C1227.36839,989.183343 1227.40305,989.494119 1227.57977,989.852664 C1227.58136,989.856124 1227.58318,989.859471 1227.58454,989.863159 C1227.63826,989.988423 1228.93254,992.94006 1231.82263,993.416323 C1231.92934,993.43391 1232.00553,993.529106 1231.99969,993.637066 C1231.99725,993.677573 1231.98743,993.718306 1231.97013,993.757961 C1231.85093,994.036798 1231.31346,994.432048 1229.43365,994.722571 C1229.28008,994.746114 1229.22051,994.946264 1229.12889,995.365852 C1229.09559,995.518573 1229.06183,995.668629 1229.01537,995.826343 C1228.97537,995.963293 1228.89005,996.027343 1228.74652,996.027343 L1228.72315,996.027343 C1228.62352,996.027343 1228.48192,996.00953 1228.30248,995.974299 C1227.98421,995.912008 1227.62737,995.854652 1227.17341,995.854652 C1226.9083,995.854652 1226.63394,995.877855 1226.35828,995.923411 C1225.79431,996.017472 1225.31544,996.355536 1224.8086,996.713854 C1224.07177,997.234935 1223.31139,997.772468 1222.12621,997.772468" id="Icon_Snapchat"></path>
        </g>
    </g>
</svg>