<?xml version="1.0" encoding="UTF-8"?>
<svg width="53px" height="61px" viewBox="0 0 53 61" version="1.1" xmlns="http://www.w3.org/2000/svg" xmlns:xlink="http://www.w3.org/1999/xlink">
    <!-- Generator: Sketch 44.1 (41455) - http://www.bohemiancoding.com/sketch -->
    <title>Logo_Gatorade</title>
    <desc>Created with Sketch.</desc>
    <defs>
        <polygon id="path-1" points="26.4805704 60.4764721 52.9610957 60.4764721 52.9610957 0.103185845 26.4805704 0.103185845 4.5106383e-05 0.103185845 4.5106383e-05 60.4764721"></polygon>
        <polygon id="path-3" points="5.36184869 0.0293498811 4.73165957 0.843709426 0.0990085106 6.48966075 2.55313404 5.63194265 4.39189574 4.99323821 7.16624277 1.82599424 7.16624277 0.0293498811 5.36184869 0.0293498811"></polygon>
        <polygon id="path-5" points="5.36184869 0.0293498811 4.73165957 0.843709426 0.0990085106 6.48966075 2.55313404 5.63194265 4.39189574 4.99323821 7.16624277 1.82599424 7.16624277 0.0293498811 5.36184869 0.0293498811"></polygon>
    </defs>
    <g id="Page-1" stroke="none" stroke-width="1" fill="none" fill-rule="evenodd">
        <g id="Podcast-Intro" transform="translate(-1220.000000, -54.000000)">
            <g id="Logo_Gatorade" transform="translate(1220.000000, 54.000000)">
                <g id="Group-8" transform="translate(0.000000, 0.010706)">
                    <g id="Group-3">
                        <mask id="mask-2" fill="white">
                            <use xlink:href="#path-1"></use>
                        </mask>
                        <g id="Clip-2"></g>
                        <path d="M38.9347472,27.1399273 L28.5407706,37.9065616 L38.2060536,37.9065616 L38.2060536,46.1761212 C35.9890749,47.1230165 34.5398068,47.4678805 32.2374643,47.4678805 C28.4996111,47.4678805 25.1200153,46.2733847 22.4843366,44.1962286 L16.2934855,50.4300887 L19.7309302,41.4801403 C17.6549089,38.5948089 16.2888621,34.5054149 16.2888621,30.3269577 C16.2888621,21.1950104 22.4261494,14.4760857 30.8718685,14.4760857 C32.9752919,14.4760857 34.8995302,14.7792653 36.7727983,15.4937077 L48.7488813,11.5582952 L44.5309834,16.8962835 L50.9504111,14.5701602 L46.7719813,18.8949683 L46.2506643,19.4384593 L51.9609068,19.4384593 L51.9609068,0.103185845 L42.9333153,0.103185845 L42.9333153,2.962436 C39.3248047,1.5597463 35.3596153,0.866829434 30.9588111,0.866829434 C12.9594472,0.866829434 4.5106383e-05,13.5291904 4.5106383e-05,31.2738529 C4.5106383e-05,48.5011056 12.4518877,60.4764721 30.3596855,60.4764721 C38.8034877,60.4764721 46.3951174,58.1488682 52.9611409,53.5834071 L52.9594494,27.1399273 L38.9347472,27.1399273 Z" id="Fill-1" fill="#FEFEFE" mask="url(#mask-2)"></path>
                    </g>
                    <polygon id="Fill-4" fill="#FC4C02" points="29.3305045 20.1018554 42.0109236 15.8603022 37.3977811 21.4628608 42.3908321 19.7263546 22.0741279 40.8767195 27.8562023 26.1529194 24.5574598 27.4245198"></polygon>
                    <polygon id="Stroke-6" stroke="#FC4C02" stroke-width="1.552" points="29.3305045 20.1018554 42.0109236 15.8603022 37.3977811 21.4628608 42.3908321 19.7263546 22.0741279 40.8767195 27.8562023 26.1529194 24.5574598 27.4245198"></polygon>
                </g>
                <g id="Group-13" transform="translate(24.470213, 24.383521)">
                    <polygon id="Fill-9" fill="#EE3D42" points="4.06462638 0.0509779076 1.37076043 1.08260858 0.0872582979 3.05168151 3.38600085 1.78008111"></polygon>
                    <polygon id="Stroke-11" stroke="#EE3D42" stroke-width="1.552" points="4.06462638 0.0509779076 1.37076043 1.08260858 0.0872582979 3.05168151 3.38600085 1.78008111"></polygon>
                </g>
                <g id="Group-20" transform="translate(34.844681, 15.841647)">
                    <g id="Group-16">
                        <mask id="mask-4" fill="white">
                            <use xlink:href="#path-3"></use>
                        </mask>
                        <g id="Clip-15"></g>
                        <polygon id="Fill-14" fill="#EE3D42" mask="url(#mask-4)" points="0.0989746809 6.48974047 2.55310021 5.63202237 7.16624277 0.0293498811 4.73162574 0.843675259"></polygon>
                    </g>
                    <g id="Group-19">
                        <mask id="mask-6" fill="white">
                            <use xlink:href="#path-5"></use>
                        </mask>
                        <g id="Clip-18"></g>
                        <polygon id="Stroke-17" stroke="#EE3D42" stroke-width="1.552" mask="url(#mask-6)" points="0.0989746809 6.48974047 2.55310021 5.63202237 7.16624277 0.0293498811 4.73162574 0.843675259"></polygon>
                    </g>
                </g>
                <g id="Group-25" transform="translate(21.989362, 19.713963)">
                    <polygon id="Fill-21" fill="#EE3D42" points="1.39889553 17.8232022 17.5061594 1.03010452 20.4014253 0.0230744506 0.0848338298 21.1734393"></polygon>
                    <polygon id="Stroke-23" stroke="#EE3D42" stroke-width="1.552" points="1.39889553 17.8232022 17.5061594 1.03010452 20.4014253 0.0230744506 0.0848338298 21.1734393"></polygon>
                </g>
                <path d="M24.5574823,27.4352484 L27.8562249,26.163648 L22.0741504,40.8874481 L42.3907419,19.7370832 L37.3978036,21.4735894 L42.0109462,15.8710308 L29.330527,20.112584 L24.5574823,27.4352484 Z M19.0328526,46.2409256 C19.9428738,43.9020464 26.1643972,28.0789641 26.1643972,28.0789641 L22.0650164,29.6634248 L28.7757185,19.3505349 L45.7958228,13.6446766 L41.229027,19.2041841 L46.9437802,17.1872767 L19.0328526,46.2409256 L19.0328526,46.2409256 Z" id="Fill-26" fill="#221F20"></path>
            </g>
        </g>
    </g>
</svg>
